# xmcd
#
# Track frame offsets: 
#        150
#        14655
#        36187
#        52850
#        69869
#        85204
#        99924
#        111893
#        126818
#        144976
#        161068
#        179880
#
# Disc length: 2563 seconds
#
# Revision: 2
# Processed by: cddbd v1.5.2PL0 Copyright (c) Steve Scherf et al.
# Submitted via: ExactAudioCopyFreeDBPlugin 1.0
#
DISCID=9e0a010c
DTITLE=Clare Bowditch and the Feeding Set - The Moon Looked On [CD 2, 
DTITLE=Campfire Versions)
DYEAR=2007
DGENRE=Folk/Rock
TTITLE0=You Looked So Good
TTITLE1=Peccadilloes
TTITLE2=Between the Tea and the Toast
TTITLE3=I Am Not Allowed
TTITLE4=When the Lights Went Down
TTITLE5=Little Black Cave
TTITLE6=This Bastard Disease
TTITLE7=I Love the Way You Talk
TTITLE8=That Wouldn't Be So Good
TTITLE9=Your Other Hand
TTITLE10=You Can Stay the Night
TTITLE11=People Like Me, People Like You
EXTD=YEAR: 2007
EXTT0=
EXTT1=
EXTT2=
EXTT3=
EXTT4=
EXTT5=
EXTT6=
EXTT7=
EXTT8=
EXTT9=
EXTT10=
EXTT11=
PLAYORDER=
